<?xml version="1.0" encoding="UTF-8" standalone="no"?>
<!DOCTYPE svg PUBLIC "-//W3C//DTD SVG 1.1//EN"
 "http://www.w3.org/Graphics/SVG/1.1/DTD/svg11.dtd">
<!-- Generated by graphviz version 2.42.4 (0)
 -->
<!-- Title: Architecture Pages: 1 -->
<svg width="1456pt" height="156pt"
 viewBox="0.00 0.00 1456.00 156.00" xmlns="http://www.w3.org/2000/svg" xmlns:xlink="http://www.w3.org/1999/xlink">
<g id="graph0" class="graph" transform="scale(1 1) rotate(0) translate(18 138)">
<title>Architecture</title>
<!-- user -->
<g id="node1" class="node">
<title>user</title>
<path fill="#ffffff" stroke="#f0d2b2" d="M70,-78C70,-78 12,-78 12,-78 6,-78 0,-72 0,-66 0,-66 0,-54 0,-54 0,-48 6,-42 12,-42 12,-42 70,-42 70,-42 76,-42 82,-48 82,-54 82,-54 82,-66 82,-66 82,-72 76,-78 70,-78"/>
<text text-anchor="middle" x="41" y="-57.2" font-family="DejaVu Sans" font-size="11.00" fill="#2f2d2a">Pengguna</text>
</g>
<!-- browser -->
<g id="node2" class="node">
<title>browser</title>
<path fill="#fff7f0" stroke="#f0d2b2" d="M321,-82C321,-82 177,-82 177,-82 171,-82 165,-76 165,-70 165,-70 165,-50 165,-50 165,-44 171,-38 177,-38 177,-38 321,-38 321,-38 327,-38 333,-44 333,-50 333,-50 333,-70 333,-70 333,-76 327,-82 321,-82"/>
<text text-anchor="middle" x="249" y="-63.2" font-family="DejaVu Sans" font-size="11.00" fill="#2f2d2a">Browser</text>
<text text-anchor="middle" x="249" y="-51.2" font-family="DejaVu Sans" font-size="11.00" fill="#2f2d2a">HTML + CSS + JavaScript</text>
</g>
<!-- user&#45;&gt;browser -->
<g id="edge1" class="edge">
<title>user&#45;&gt;browser</title>
<path fill="none" stroke="#b7782e" d="M82.09,-60C82.09,-60 157.48,-60 157.48,-60"/>
<polygon fill="#b7782e" stroke="#b7782e" points="157.48,-62.63 164.98,-60 157.48,-57.38 157.48,-62.63"/>
<text text-anchor="middle" x="123.5" y="-62.8" font-family="DejaVu Sans" font-size="9.00" fill="#7a6b64">interaksi</text>
</g>
<!-- dom -->
<g id="node3" class="node">
<title>dom</title>
<path fill="#fff7f0" stroke="#f0d2b2" d="M601,-82C601,-82 451,-82 451,-82 445,-82 439,-76 439,-70 439,-70 439,-50 439,-50 439,-44 445,-38 451,-38 451,-38 601,-38 601,-38 607,-38 613,-44 613,-50 613,-50 613,-70 613,-70 613,-76 607,-82 601,-82"/>
<text text-anchor="middle" x="526" y="-63.2" font-family="DejaVu Sans" font-size="11.00" fill="#2f2d2a">DOM &amp; State</text>
<text text-anchor="middle" x="526" y="-51.2" font-family="DejaVu Sans" font-size="11.00" fill="#2f2d2a">Form, modal, preview foto</text>
</g>
<!-- browser&#45;&gt;dom -->
<g id="edge2" class="edge">
<title>browser&#45;&gt;dom</title>
<path fill="none" stroke="#b7782e" d="M333.24,-60C333.24,-60 431.31,-60 431.31,-60"/>
<polygon fill="#b7782e" stroke="#b7782e" points="431.31,-62.63 438.81,-60 431.31,-57.38 431.31,-62.63"/>
<text text-anchor="middle" x="386" y="-62.8" font-family="DejaVu Sans" font-size="9.00" fill="#7a6b64">event listener</text>
</g>
<!-- fetch -->
<g id="node4" class="node">
<title>fetch</title>
<path fill="#fff7f0" stroke="#f0d2b2" d="M865,-82C865,-82 710,-82 710,-82 704,-82 698,-76 698,-70 698,-70 698,-50 698,-50 698,-44 704,-38 710,-38 710,-38 865,-38 865,-38 871,-38 877,-44 877,-50 877,-50 877,-70 877,-70 877,-76 871,-82 865,-82"/>
<text text-anchor="middle" x="787.5" y="-63.2" font-family="DejaVu Sans" font-size="11.00" fill="#2f2d2a">Fetch API</text>
<text text-anchor="middle" x="787.5" y="-51.2" font-family="DejaVu Sans" font-size="11.00" fill="#2f2d2a">POST text/plain berisi JSON</text>
</g>
<!-- dom&#45;&gt;fetch -->
<g id="edge3" class="edge">
<title>dom&#45;&gt;fetch</title>
<path fill="none" stroke="#b7782e" d="M613.08,-52.67C613.08,-52.67 690.18,-52.67 690.18,-52.67"/>
<polygon fill="#b7782e" stroke="#b7782e" points="690.18,-55.29 697.68,-52.67 690.18,-50.04 690.18,-55.29"/>
<text text-anchor="middle" x="655.5" y="-86.8" font-family="DejaVu Sans" font-size="9.00" fill="#7a6b64">payload</text>
</g>
<!-- fetch&#45;&gt;dom -->
<g id="edge8" class="edge">
<title>fetch&#45;&gt;dom</title>
<path fill="none" stroke="#b7782e" d="M697.87,-67.33C697.87,-67.33 620.8,-67.33 620.8,-67.33"/>
<polygon fill="#b7782e" stroke="#b7782e" points="620.8,-64.71 613.3,-67.33 620.8,-69.96 620.8,-64.71"/>
<text text-anchor="middle" x="655.5" y="-39.8" font-family="DejaVu Sans" font-size="9.00" fill="#7a6b64">status UI</text>
</g>
<!-- apps -->
<g id="node5" class="node">
<title>apps</title>
<path fill="#fff4e8" stroke="#f0d2b2" d="M1109,-82C1109,-82 1000,-82 1000,-82 994,-82 988,-76 988,-70 988,-70 988,-50 988,-50 988,-44 994,-38 1000,-38 1000,-38 1109,-38 1109,-38 1115,-38 1121,-44 1121,-50 1121,-50 1121,-70 1121,-70 1121,-76 1115,-82 1109,-82"/>
<text text-anchor="middle" x="1054.5" y="-63.2" font-family="DejaVu Sans" font-size="11.00" fill="#2f2d2a">Google Apps Script</text>
<text text-anchor="middle" x="1054.5" y="-51.2" font-family="DejaVu Sans" font-size="11.00" fill="#2f2d2a">Web App Endpoint</text>
</g>
<!-- fetch&#45;&gt;apps -->
<g id="edge4" class="edge">
<title>fetch&#45;&gt;apps</title>
<path fill="none" stroke="#b7782e" d="M877.15,-52.67C877.15,-52.67 980.39,-52.67 980.39,-52.67"/>
<polygon fill="#b7782e" stroke="#b7782e" points="980.39,-55.29 987.89,-52.67 980.39,-50.04 980.39,-55.29"/>
<text text-anchor="middle" x="932.5" y="-86.8" font-family="DejaVu Sans" font-size="9.00" fill="#7a6b64">HTTPS POST</text>
</g>
<!-- apps&#45;&gt;fetch -->
<g id="edge7" class="edge">
<title>apps&#45;&gt;fetch</title>
<path fill="none" stroke="#b7782e" d="M987.81,-67.33C987.81,-67.33 884.74,-67.33 884.74,-67.33"/>
<polygon fill="#b7782e" stroke="#b7782e" points="884.74,-64.71 877.24,-67.33 884.74,-69.96 884.74,-64.71"/>
<text text-anchor="middle" x="932.5" y="-39.8" font-family="DejaVu Sans" font-size="9.00" fill="#7a6b64">JSON response</text>
</g>
<!-- sheets -->
<g id="node6" class="node">
<title>sheets</title>
<path fill="#f0fff7" stroke="#9fd3b5" d="M1397,-120C1397,-120 1290,-120 1290,-120 1284,-120 1278,-114 1278,-108 1278,-108 1278,-88 1278,-88 1278,-82 1284,-76 1290,-76 1290,-76 1397,-76 1397,-76 1403,-76 1409,-82 1409,-88 1409,-88 1409,-108 1409,-108 1409,-114 1403,-120 1397,-120"/>
<text text-anchor="middle" x="1343.5" y="-101.2" font-family="DejaVu Sans" font-size="11.00" fill="#2f2d2a">Google Sheets</text>
<text text-anchor="middle" x="1343.5" y="-89.2" font-family="DejaVu Sans" font-size="11.00" fill="#2f2d2a">Penyimpanan data</text>
</g>
<!-- apps&#45;&gt;sheets -->
<g id="edge5" class="edge">
<title>apps&#45;&gt;sheets</title>
<path fill="none" stroke="#b7782e" d="M1121.28,-65.33C1206.78,-65.33 1344,-65.33 1344,-65.33 1344,-65.33 1344,-68.17 1344,-68.17"/>
<polygon fill="#b7782e" stroke="#b7782e" points="1341.38,-68.17 1344,-75.67 1346.63,-68.17 1341.38,-68.17"/>
<text text-anchor="middle" x="1194" y="-100.8" font-family="DejaVu Sans" font-size="9.00" fill="#7a6b64">append row</text>
</g>
<!-- drive -->
<g id="node7" class="node">
<title>drive</title>
<path fill="#f0fff7" stroke="#9fd3b5" d="M1408,-44C1408,-44 1279,-44 1279,-44 1273,-44 1267,-38 1267,-32 1267,-32 1267,-12 1267,-12 1267,-6 1273,0 1279,0 1279,0 1408,0 1408,0 1414,0 1420,-6 1420,-12 1420,-12 1420,-32 1420,-32 1420,-38 1414,-44 1408,-44"/>
<text text-anchor="middle" x="1343.5" y="-25.2" font-family="DejaVu Sans" font-size="11.00" fill="#2f2d2a">Google Drive</text>
<text text-anchor="middle" x="1343.5" y="-13.2" font-family="DejaVu Sans" font-size="11.00" fill="#2f2d2a">Penyimpanan gambar*</text>
</g>
<!-- apps&#45;&gt;drive -->
<g id="edge6" class="edge">
<title>apps&#45;&gt;drive</title>
<path fill="none" stroke="#b7782e" d="M1121.24,-54.67C1185.5,-54.67 1273,-54.67 1273,-54.67 1273,-54.67 1273,-51.83 1273,-51.83"/>
<polygon fill="#b7782e" stroke="#b7782e" points="1275.63,-51.83 1273,-44.33 1270.38,-51.83 1275.63,-51.83"/>
<text text-anchor="middle" x="1194" y="-24.8" font-family="DejaVu Sans" font-size="9.00" fill="#7a6b64">decode &amp; save image*</text>
</g>
</g>
</svg>
