<?xml version="1.0" encoding="UTF-8" standalone="no"?>
<!DOCTYPE svg PUBLIC "-//W3C//DTD SVG 1.1//EN"
 "http://www.w3.org/Graphics/SVG/1.1/DTD/svg11.dtd">
<!-- Generated by graphviz version 2.42.4 (0)
 -->
<!-- Title: WebFlow Pages: 1 -->
<svg width="670pt" height="1276pt"
 viewBox="0.00 0.00 670.00 1276.15" xmlns="http://www.w3.org/2000/svg" xmlns:xlink="http://www.w3.org/1999/xlink">
<g id="graph0" class="graph" transform="scale(1 1) rotate(0) translate(18 1258.15)">
<title>WebFlow</title>
<!-- start -->
<g id="node1" class="node">
<title>start</title>
<ellipse fill="#f18f01" stroke="#f18f01" cx="496" cy="-1206.48" rx="33.85" ry="33.85"/>
<text text-anchor="middle" x="496" y="-1203.68" font-family="DejaVu Sans" font-size="11.00" fill="white">Mulai</text>
</g>
<!-- login -->
<g id="node2" class="node">
<title>login</title>
<path fill="#fff7f0" stroke="#f0d2b2" d="M554.5,-1135.8C554.5,-1135.8 437.5,-1135.8 437.5,-1135.8 431.5,-1135.8 425.5,-1129.8 425.5,-1123.8 425.5,-1123.8 425.5,-1105.8 425.5,-1105.8 425.5,-1099.8 431.5,-1093.8 437.5,-1093.8 437.5,-1093.8 554.5,-1093.8 554.5,-1093.8 560.5,-1093.8 566.5,-1099.8 566.5,-1105.8 566.5,-1105.8 566.5,-1123.8 566.5,-1123.8 566.5,-1129.8 560.5,-1135.8 554.5,-1135.8"/>
<text text-anchor="middle" x="496" y="-1118" font-family="DejaVu Sans" font-size="11.00" fill="#2f2d2a">Halaman Login</text>
<text text-anchor="middle" x="496" y="-1106" font-family="DejaVu Sans" font-size="11.00" fill="#2f2d2a">Masukkan kata kunci</text>
</g>
<!-- start&#45;&gt;login -->
<g id="edge1" class="edge">
<title>start&#45;&gt;login</title>
<path fill="none" stroke="#b7782e" d="M496,-1172.6C496,-1172.6 496,-1143.04 496,-1143.04"/>
<polygon fill="#b7782e" stroke="#b7782e" points="498.45,-1143.04 496,-1136.04 493.55,-1143.04 498.45,-1143.04"/>
</g>
<!-- valid -->
<g id="node3" class="node">
<title>valid</title>
<path fill="#fff4e8" stroke="#f0d2b2" d="M423.27,-1051.43C423.27,-1051.43 360.73,-1020.17 360.73,-1020.17 355.37,-1017.48 355.37,-1012.12 360.73,-1009.43 360.73,-1009.43 423.27,-978.17 423.27,-978.17 428.63,-975.48 439.37,-975.48 444.73,-978.17 444.73,-978.17 507.27,-1009.43 507.27,-1009.43 512.63,-1012.12 512.63,-1017.48 507.27,-1020.17 507.27,-1020.17 444.73,-1051.43 444.73,-1051.43 439.37,-1054.12 428.63,-1054.12 423.27,-1051.43"/>
<text text-anchor="middle" x="434" y="-1018" font-family="DejaVu Sans" font-size="11.00" fill="#2f2d2a">Kata kunci</text>
<text text-anchor="middle" x="434" y="-1006" font-family="DejaVu Sans" font-size="11.00" fill="#2f2d2a">benar?</text>
</g>
<!-- login&#45;&gt;valid -->
<g id="edge2" class="edge">
<title>login&#45;&gt;valid</title>
<path fill="none" stroke="#b7782e" d="M471.75,-1093.59C471.75,-1093.59 471.75,-1045.07 471.75,-1045.07"/>
<polygon fill="#b7782e" stroke="#b7782e" points="474.2,-1045.07 471.75,-1038.07 469.3,-1045.07 474.2,-1045.07"/>
</g>
<!-- err -->
<g id="node4" class="node">
<title>err</title>
<path fill="#fff0ea" stroke="#e3a186" d="M622,-926.8C622,-926.8 496,-926.8 496,-926.8 490,-926.8 484,-920.8 484,-914.8 484,-914.8 484,-896.8 484,-896.8 484,-890.8 490,-884.8 496,-884.8 496,-884.8 622,-884.8 622,-884.8 628,-884.8 634,-890.8 634,-896.8 634,-896.8 634,-914.8 634,-914.8 634,-920.8 628,-926.8 622,-926.8"/>
<text text-anchor="middle" x="559" y="-909" font-family="DejaVu Sans" font-size="11.00" fill="#2f2d2a">Tampilkan pesan error</text>
<text text-anchor="middle" x="559" y="-897" font-family="DejaVu Sans" font-size="11.00" fill="#2f2d2a">Tetap di halaman login</text>
</g>
<!-- valid&#45;&gt;err -->
<g id="edge3" class="edge">
<title>valid&#45;&gt;err</title>
<path fill="none" stroke="#b7782e" d="M501,-1006.25C501,-1006.25 501,-933.84 501,-933.84"/>
<polygon fill="#b7782e" stroke="#b7782e" points="503.45,-933.84 501,-926.84 498.55,-933.84 503.45,-933.84"/>
<text text-anchor="middle" x="493.5" y="-947.6" font-family="DejaVu Sans" font-size="9.00" fill="#7a6b64">Tidak</text>
</g>
<!-- form -->
<g id="node5" class="node">
<title>form</title>
<path fill="#fff7f0" stroke="#f0d2b2" d="M445,-923.8C445,-923.8 307,-923.8 307,-923.8 301,-923.8 295,-917.8 295,-911.8 295,-911.8 295,-899.8 295,-899.8 295,-893.8 301,-887.8 307,-887.8 307,-887.8 445,-887.8 445,-887.8 451,-887.8 457,-893.8 457,-899.8 457,-899.8 457,-911.8 457,-911.8 457,-917.8 451,-923.8 445,-923.8"/>
<text text-anchor="middle" x="376" y="-903" font-family="DejaVu Sans" font-size="11.00" fill="#2f2d2a">Tampilkan Form Logbook</text>
</g>
<!-- valid&#45;&gt;form -->
<g id="edge5" class="edge">
<title>valid&#45;&gt;form</title>
<path fill="none" stroke="#b7782e" d="M403.5,-987.86C403.5,-987.86 403.5,-930.91 403.5,-930.91"/>
<polygon fill="#b7782e" stroke="#b7782e" points="405.95,-930.91 403.5,-923.91 401.05,-930.91 405.95,-930.91"/>
<text text-anchor="middle" x="410" y="-947.6" font-family="DejaVu Sans" font-size="9.00" fill="#7a6b64">Ya</text>
</g>
<!-- err&#45;&gt;login -->
<g id="edge4" class="edge">
<title>err&#45;&gt;login</title>
<path fill="none" stroke="#b7782e" d="M542.25,-926.99C542.25,-926.99 542.25,-1086.55 542.25,-1086.55"/>
<polygon fill="#b7782e" stroke="#b7782e" points="539.8,-1086.55 542.25,-1093.55 544.7,-1086.55 539.8,-1086.55"/>
</g>
<!-- input -->
<g id="node6" class="node">
<title>input</title>
<path fill="#fff7f0" stroke="#f0d2b2" d="M460,-847.8C460,-847.8 292,-847.8 292,-847.8 286,-847.8 280,-841.8 280,-835.8 280,-835.8 280,-817.8 280,-817.8 280,-811.8 286,-805.8 292,-805.8 292,-805.8 460,-805.8 460,-805.8 466,-805.8 472,-811.8 472,-817.8 472,-817.8 472,-835.8 472,-835.8 472,-841.8 466,-847.8 460,-847.8"/>
<text text-anchor="middle" x="376" y="-830" font-family="DejaVu Sans" font-size="11.00" fill="#2f2d2a">Isi tanggal, nama, aktivitas,</text>
<text text-anchor="middle" x="376" y="-818" font-family="DejaVu Sans" font-size="11.00" fill="#2f2d2a">keterangan, dan foto opsional</text>
</g>
<!-- form&#45;&gt;input -->
<g id="edge6" class="edge">
<title>form&#45;&gt;input</title>
<path fill="none" stroke="#b7782e" d="M376,-887.48C376,-887.48 376,-854.82 376,-854.82"/>
<polygon fill="#b7782e" stroke="#b7782e" points="378.45,-854.82 376,-847.82 373.55,-854.82 378.45,-854.82"/>
</g>
<!-- required -->
<g id="node7" class="node">
<title>required</title>
<path fill="#fff4e8" stroke="#f0d2b2" d="M161.54,-765.24C161.54,-765.24 49.46,-730.37 49.46,-730.37 43.73,-728.58 43.73,-725.02 49.46,-723.24 49.46,-723.24 161.54,-688.37 161.54,-688.37 167.27,-686.58 178.73,-686.58 184.46,-688.37 184.46,-688.37 296.54,-723.24 296.54,-723.24 302.27,-725.02 302.27,-728.58 296.54,-730.37 296.54,-730.37 184.46,-765.24 184.46,-765.24 178.73,-767.02 167.27,-767.02 161.54,-765.24"/>
<text text-anchor="middle" x="173" y="-730" font-family="DejaVu Sans" font-size="11.00" fill="#2f2d2a">Tanggal, nama, dan</text>
<text text-anchor="middle" x="173" y="-718" font-family="DejaVu Sans" font-size="11.00" fill="#2f2d2a">aktivitas terisi?</text>
</g>
<!-- input&#45;&gt;required -->
<g id="edge7" class="edge">
<title>input&#45;&gt;required</title>
<path fill="none" stroke="#b7782e" d="M294,-805.59C294,-805.59 294,-738.19 294,-738.19"/>
<polygon fill="#b7782e" stroke="#b7782e" points="296.45,-738.19 294,-731.19 291.55,-738.19 296.45,-738.19"/>
</g>
<!-- formerr -->
<g id="node8" class="node">
<title>formerr</title>
<path fill="#fff0ea" stroke="#e3a186" d="M351,-635.8C351,-635.8 219,-635.8 219,-635.8 213,-635.8 207,-629.8 207,-623.8 207,-623.8 207,-611.8 207,-611.8 207,-605.8 213,-599.8 219,-599.8 219,-599.8 351,-599.8 351,-599.8 357,-599.8 363,-605.8 363,-611.8 363,-611.8 363,-623.8 363,-623.8 363,-629.8 357,-635.8 351,-635.8"/>
<text text-anchor="middle" x="285" y="-615" font-family="DejaVu Sans" font-size="11.00" fill="#2f2d2a">Tampilkan validasi form</text>
</g>
<!-- required&#45;&gt;formerr -->
<g id="edge8" class="edge">
<title>required&#45;&gt;formerr</title>
<path fill="none" stroke="#b7782e" d="M257.5,-710.72C257.5,-710.72 257.5,-643.14 257.5,-643.14"/>
<polygon fill="#b7782e" stroke="#b7782e" points="259.95,-643.14 257.5,-636.14 255.05,-643.14 259.95,-643.14"/>
<text text-anchor="middle" x="242.5" y="-659.6" font-family="DejaVu Sans" font-size="9.00" fill="#7a6b64">Tidak</text>
</g>
<!-- confirm -->
<g id="node9" class="node">
<title>confirm</title>
<path fill="#fff7f0" stroke="#f0d2b2" d="M168,-638.8C168,-638.8 12,-638.8 12,-638.8 6,-638.8 0,-632.8 0,-626.8 0,-626.8 0,-608.8 0,-608.8 0,-602.8 6,-596.8 12,-596.8 12,-596.8 168,-596.8 168,-596.8 174,-596.8 180,-602.8 180,-608.8 180,-608.8 180,-626.8 180,-626.8 180,-632.8 174,-638.8 168,-638.8"/>
<text text-anchor="middle" x="90" y="-621" font-family="DejaVu Sans" font-size="11.00" fill="#2f2d2a">Tampilkan Modal Konfirmasi</text>
<text text-anchor="middle" x="90" y="-609" font-family="DejaVu Sans" font-size="11.00" fill="#2f2d2a">Ringkasan data</text>
</g>
<!-- required&#45;&gt;confirm -->
<g id="edge10" class="edge">
<title>required&#45;&gt;confirm</title>
<path fill="none" stroke="#b7782e" d="M109,-704.48C109,-704.48 109,-645.98 109,-645.98"/>
<polygon fill="#b7782e" stroke="#b7782e" points="111.45,-645.98 109,-638.98 106.55,-645.98 111.45,-645.98"/>
<text text-anchor="middle" x="137" y="-659.6" font-family="DejaVu Sans" font-size="9.00" fill="#7a6b64">Ya</text>
</g>
<!-- formerr&#45;&gt;input -->
<g id="edge9" class="edge">
<title>formerr&#45;&gt;input</title>
<path fill="none" stroke="#b7782e" d="M335.5,-635.98C335.5,-635.98 335.5,-798.74 335.5,-798.74"/>
<polygon fill="#b7782e" stroke="#b7782e" points="333.05,-798.74 335.5,-805.74 337.95,-798.74 333.05,-798.74"/>
</g>
<!-- choice -->
<g id="node10" class="node">
<title>choice</title>
<path fill="#fff4e8" stroke="#f0d2b2" d="M154.51,-556.35C154.51,-556.35 77.49,-533.25 77.49,-533.25 71.75,-531.52 71.75,-528.08 77.49,-526.35 77.49,-526.35 154.51,-503.25 154.51,-503.25 160.25,-501.52 171.75,-501.52 177.49,-503.25 177.49,-503.25 254.51,-526.35 254.51,-526.35 260.25,-528.08 260.25,-531.52 254.51,-533.25 254.51,-533.25 177.49,-556.35 177.49,-556.35 171.75,-558.08 160.25,-558.08 154.51,-556.35"/>
<text text-anchor="middle" x="166" y="-527" font-family="DejaVu Sans" font-size="11.00" fill="#2f2d2a">Pilih tindakan</text>
</g>
<!-- confirm&#45;&gt;choice -->
<g id="edge11" class="edge">
<title>confirm&#45;&gt;choice</title>
<path fill="none" stroke="#b7782e" d="M123,-596.5C123,-596.5 123,-554.07 123,-554.07"/>
<polygon fill="#b7782e" stroke="#b7782e" points="125.45,-554.07 123,-547.07 120.55,-554.07 125.45,-554.07"/>
</g>
<!-- edit -->
<g id="node11" class="node">
<title>edit</title>
<path fill="#fff7f0" stroke="#f0d2b2" d="M406,-453.8C406,-453.8 314,-453.8 314,-453.8 308,-453.8 302,-447.8 302,-441.8 302,-441.8 302,-423.8 302,-423.8 302,-417.8 308,-411.8 314,-411.8 314,-411.8 406,-411.8 406,-411.8 412,-411.8 418,-417.8 418,-423.8 418,-423.8 418,-441.8 418,-441.8 418,-447.8 412,-453.8 406,-453.8"/>
<text text-anchor="middle" x="360" y="-436" font-family="DejaVu Sans" font-size="11.00" fill="#2f2d2a">Edit data</text>
<text text-anchor="middle" x="360" y="-424" font-family="DejaVu Sans" font-size="11.00" fill="#2f2d2a">Kembali ke form</text>
</g>
<!-- choice&#45;&gt;edit -->
<g id="edge12" class="edge">
<title>choice&#45;&gt;edit</title>
<path fill="none" stroke="#b7782e" d="M263.34,-529C299.77,-529 332.5,-529 332.5,-529 332.5,-529 332.5,-461.15 332.5,-461.15"/>
<polygon fill="#b7782e" stroke="#b7782e" points="334.95,-461.15 332.5,-454.15 330.05,-461.15 334.95,-461.15"/>
<text text-anchor="middle" x="315.5" y="-474.6" font-family="DejaVu Sans" font-size="9.00" fill="#7a6b64">Edit</text>
</g>
<!-- send -->
<g id="node12" class="node">
<title>send</title>
<path fill="#fff7f0" stroke="#f0d2b2" d="M263,-453.8C263,-453.8 69,-453.8 69,-453.8 63,-453.8 57,-447.8 57,-441.8 57,-441.8 57,-423.8 57,-423.8 57,-417.8 63,-411.8 69,-411.8 69,-411.8 263,-411.8 263,-411.8 269,-411.8 275,-417.8 275,-423.8 275,-423.8 275,-441.8 275,-441.8 275,-447.8 269,-453.8 263,-453.8"/>
<text text-anchor="middle" x="166" y="-436" font-family="DejaVu Sans" font-size="11.00" fill="#2f2d2a">Nonaktifkan tombol</text>
<text text-anchor="middle" x="166" y="-424" font-family="DejaVu Sans" font-size="11.00" fill="#2f2d2a">Kirim payload JSON dengan fetch()</text>
</g>
<!-- choice&#45;&gt;send -->
<g id="edge14" class="edge">
<title>choice&#45;&gt;send</title>
<path fill="none" stroke="#b7782e" d="M166,-499.64C166,-499.64 166,-461.02 166,-461.02"/>
<polygon fill="#b7782e" stroke="#b7782e" points="168.45,-461.02 166,-454.02 163.55,-461.02 168.45,-461.02"/>
<text text-anchor="middle" x="192.5" y="-474.6" font-family="DejaVu Sans" font-size="9.00" fill="#7a6b64">Gas Submit</text>
</g>
<!-- edit&#45;&gt;input -->
<g id="edge13" class="edge">
<title>edit&#45;&gt;input</title>
<path fill="none" stroke="#b7782e" d="M390.5,-453.98C390.5,-453.98 390.5,-798.51 390.5,-798.51"/>
<polygon fill="#b7782e" stroke="#b7782e" points="388.05,-798.51 390.5,-805.51 392.95,-798.51 388.05,-798.51"/>
</g>
<!-- response -->
<g id="node13" class="node">
<title>response</title>
<path fill="#fff4e8" stroke="#f0d2b2" d="M231.78,-370.55C231.78,-370.55 143.22,-337.05 143.22,-337.05 137.61,-334.92 137.61,-330.68 143.22,-328.55 143.22,-328.55 231.78,-295.05 231.78,-295.05 237.39,-292.92 248.61,-292.92 254.22,-295.05 254.22,-295.05 342.78,-328.55 342.78,-328.55 348.39,-330.68 348.39,-334.92 342.78,-337.05 342.78,-337.05 254.22,-370.55 254.22,-370.55 248.61,-372.68 237.39,-372.68 231.78,-370.55"/>
<text text-anchor="middle" x="243" y="-336" font-family="DejaVu Sans" font-size="11.00" fill="#2f2d2a">Respons status</text>
<text text-anchor="middle" x="243" y="-324" font-family="DejaVu Sans" font-size="11.00" fill="#2f2d2a">success?</text>
</g>
<!-- send&#45;&gt;response -->
<g id="edge15" class="edge">
<title>send&#45;&gt;response</title>
<path fill="none" stroke="#b7782e" d="M203.5,-411.59C203.5,-411.59 203.5,-367.07 203.5,-367.07"/>
<polygon fill="#b7782e" stroke="#b7782e" points="205.95,-367.07 203.5,-360.07 201.05,-367.07 205.95,-367.07"/>
</g>
<!-- fail -->
<g id="node14" class="node">
<title>fail</title>
<path fill="#fff0ea" stroke="#e3a186" d="M513.5,-244.8C513.5,-244.8 378.5,-244.8 378.5,-244.8 372.5,-244.8 366.5,-238.8 366.5,-232.8 366.5,-232.8 366.5,-214.8 366.5,-214.8 366.5,-208.8 372.5,-202.8 378.5,-202.8 378.5,-202.8 513.5,-202.8 513.5,-202.8 519.5,-202.8 525.5,-208.8 525.5,-214.8 525.5,-214.8 525.5,-232.8 525.5,-232.8 525.5,-238.8 519.5,-244.8 513.5,-244.8"/>
<text text-anchor="middle" x="446" y="-227" font-family="DejaVu Sans" font-size="11.00" fill="#2f2d2a">Tampilkan pesan gagal</text>
<text text-anchor="middle" x="446" y="-215" font-family="DejaVu Sans" font-size="11.00" fill="#2f2d2a">Aktifkan kembali tombol</text>
</g>
<!-- response&#45;&gt;fail -->
<g id="edge16" class="edge">
<title>response&#45;&gt;fail</title>
<path fill="none" stroke="#b7782e" d="M340,-327.2C340,-304.83 340,-223 340,-223 340,-223 359.47,-223 359.47,-223"/>
<polygon fill="#b7782e" stroke="#b7782e" points="359.47,-225.45 366.47,-223 359.47,-220.55 359.47,-225.45"/>
<text text-anchor="middle" x="362.5" y="-265.6" font-family="DejaVu Sans" font-size="9.00" fill="#7a6b64">Tidak</text>
</g>
<!-- success -->
<g id="node15" class="node">
<title>success</title>
<path fill="#fff7f0" stroke="#f0d2b2" d="M314,-241.8C314,-241.8 172,-241.8 172,-241.8 166,-241.8 160,-235.8 160,-229.8 160,-229.8 160,-217.8 160,-217.8 160,-211.8 166,-205.8 172,-205.8 172,-205.8 314,-205.8 314,-205.8 320,-205.8 326,-211.8 326,-217.8 326,-217.8 326,-229.8 326,-229.8 326,-235.8 320,-241.8 314,-241.8"/>
<text text-anchor="middle" x="243" y="-221" font-family="DejaVu Sans" font-size="11.00" fill="#2f2d2a">Tampilkan Modal Berhasil</text>
</g>
<!-- response&#45;&gt;success -->
<g id="edge18" class="edge">
<title>response&#45;&gt;success</title>
<path fill="none" stroke="#b7782e" d="M243,-290.66C243,-290.66 243,-248.93 243,-248.93"/>
<polygon fill="#b7782e" stroke="#b7782e" points="245.45,-248.93 243,-241.93 240.55,-248.93 245.45,-248.93"/>
<text text-anchor="middle" x="248" y="-265.6" font-family="DejaVu Sans" font-size="9.00" fill="#7a6b64">Ya</text>
</g>
<!-- fail&#45;&gt;input -->
<g id="edge17" class="edge">
<title>fail&#45;&gt;input</title>
<path fill="none" stroke="#b7782e" d="M445,-244.91C445,-244.91 445,-798.55 445,-798.55"/>
<polygon fill="#b7782e" stroke="#b7782e" points="442.55,-798.55 445,-805.55 447.45,-798.55 442.55,-798.55"/>
</g>
<!-- close -->
<g id="node16" class="node">
<title>close</title>
<path fill="#fff7f0" stroke="#f0d2b2" d="M215,-156.8C215,-156.8 59,-156.8 59,-156.8 53,-156.8 47,-150.8 47,-144.8 47,-144.8 47,-132.8 47,-132.8 47,-126.8 53,-120.8 59,-120.8 59,-120.8 215,-120.8 215,-120.8 221,-120.8 227,-126.8 227,-132.8 227,-132.8 227,-144.8 227,-144.8 227,-150.8 221,-156.8 215,-156.8"/>
<text text-anchor="middle" x="137" y="-136" font-family="DejaVu Sans" font-size="11.00" fill="#2f2d2a">Tutup modal dan reset form</text>
</g>
<!-- success&#45;&gt;close -->
<g id="edge19" class="edge">
<title>success&#45;&gt;close</title>
<path fill="none" stroke="#b7782e" d="M193.5,-205.77C193.5,-205.77 193.5,-163.8 193.5,-163.8"/>
<polygon fill="#b7782e" stroke="#b7782e" points="195.95,-163.8 193.5,-156.8 191.05,-163.8 195.95,-163.8"/>
</g>
<!-- sheet -->
<g id="node17" class="node">
<title>sheet</title>
<path fill="#f0fff7" stroke="#9fd3b5" d="M434,-156.8C434,-156.8 266,-156.8 266,-156.8 260,-156.8 254,-150.8 254,-144.8 254,-144.8 254,-132.8 254,-132.8 254,-126.8 260,-120.8 266,-120.8 266,-120.8 434,-120.8 434,-120.8 440,-120.8 446,-126.8 446,-132.8 446,-132.8 446,-144.8 446,-144.8 446,-150.8 440,-156.8 434,-156.8"/>
<text text-anchor="middle" x="350" y="-136" font-family="DejaVu Sans" font-size="11.00" fill="#2f2d2a">Opsional: buka Google Sheets</text>
</g>
<!-- success&#45;&gt;sheet -->
<g id="edge20" class="edge">
<title>success&#45;&gt;sheet</title>
<path fill="none" stroke="#b7782e" d="M290,-205.77C290,-205.77 290,-163.8 290,-163.8"/>
<polygon fill="#b7782e" stroke="#b7782e" points="292.45,-163.8 290,-156.8 287.55,-163.8 292.45,-163.8"/>
<text text-anchor="middle" x="333.5" y="-177.6" font-family="DejaVu Sans" font-size="9.00" fill="#7a6b64">Cek Sheets</text>
</g>
<!-- end -->
<g id="node18" class="node">
<title>end</title>
<ellipse fill="#f18f01" stroke="#f18f01" cx="243" cy="-41.9" rx="37.81" ry="37.81"/>
<ellipse fill="none" stroke="#f18f01" cx="243" cy="-41.9" rx="41.8" ry="41.8"/>
<text text-anchor="middle" x="243" y="-39.1" font-family="DejaVu Sans" font-size="11.00" fill="white">Selesai</text>
</g>
<!-- close&#45;&gt;end -->
<g id="edge21" class="edge">
<title>close&#45;&gt;end</title>
<path fill="none" stroke="#b7782e" d="M214.05,-120.57C214.05,-120.57 214.05,-79.24 214.05,-79.24"/>
<polygon fill="#b7782e" stroke="#b7782e" points="216.5,-79.24 214.05,-72.24 211.6,-79.24 216.5,-79.24"/>
</g>
<!-- sheet&#45;&gt;end -->
<g id="edge22" class="edge">
<title>sheet&#45;&gt;end</title>
<path fill="none" stroke="#b7782e" d="M269.45,-120.57C269.45,-120.57 269.45,-81.56 269.45,-81.56"/>
<polygon fill="#b7782e" stroke="#b7782e" points="271.9,-81.56 269.45,-74.56 267,-81.56 271.9,-81.56"/>
</g>
</g>
</svg>
